<svg xmlns="http://www.w3.org/2000/svg" version="1.1" xmlns:xlink="http://www.w3.org/1999/xlink" xmlns:svgjs="http://svgjs.dev/svgjs" width="2000" height="1500" viewBox="0 0 2000 1500"><rect width="2000" height="1500" fill="#1ec8aa"></rect><g transform="matrix(0.75,0,0,0.75,250.46750398072118,123.3750011164368)"><svg viewBox="0 0 335 280" data-background-color="#1ec8aa" preserveAspectRatio="xMidYMid meet" height="1671" width="2000" xmlns="http://www.w3.org/2000/svg" xmlns:xlink="http://www.w3.org/1999/xlink"><g id="tight-bounds" transform="matrix(1,0,0,1,-0.10440915999541289,-2.494333273261873e-7)"><svg viewBox="0 0 335.2087960928764 280" height="280" width="335.2087960928764"><g><svg viewBox="0 0 395.52 330.3779652885829" height="280" width="335.2087960928764"><g><svg viewBox="0 0 395.52 330.3779652885829" height="330.3779652885829" width="395.52"><g id="textblocktransform"><svg viewBox="0 0 395.52 330.3779652885829" height="330.3779652885829" width="395.52" id="textblock"><g><svg viewBox="0 0 395.52 278.2696" height="278.2696" width="395.52"><g transform="matrix(1,0,0,1,132.17122628064396,79.99032790702258)"><svg viewBox="0 0 131.17754743871208 118.28894418595488" height="118.28894418595488" width="131.17754743871208"><g><svg xmlns="http://www.w3.org/2000/svg" xmlns:xlink="http://www.w3.org/1999/xlink" xmlns:a="http://ns.adobe.com/AdobeSVGViewerExtensions/3.0/" version="1.1" x="0" y="0" viewBox="0 0 38.125999450683594 34.380001068115234" enable-background="new -1 -3.211 40 40" xml:space="preserve" height="118.28894418595488" width="131.17754743871208" class="icon-o-0" data-fill-palette-color="accent" id="o-0"><path d="M17.425 34.307c0.911 0 1.639-0.327 2.255-0.946 0.619-0.618 0.948-1.382 0.948-2.255 0-0.908-0.329-1.674-0.948-2.292-0.616-0.617-1.345-0.946-2.255-0.946-0.908 0-1.672 0.329-2.291 0.946-0.619 0.618-0.911 1.384-0.911 2.292 0 0.873 0.292 1.637 0.911 2.255C15.753 33.979 16.517 34.307 17.425 34.307L17.425 34.307z" fill="#ffffff" data-fill-palette-color="accent"></path><path d="M28.74 34.38c-0.908 0-1.637-0.328-2.256-0.946-0.618-0.618-0.945-1.383-0.945-2.256 0-0.908 0.327-1.673 0.945-2.291 0.619-0.618 1.348-0.946 2.256-0.946 0.91 0 1.674 0.328 2.293 0.946 0.618 0.618 0.908 1.383 0.908 2.291 0 0.873-0.29 1.638-0.908 2.256C30.414 34.052 29.65 34.38 28.74 34.38L28.74 34.38z" fill="#ffffff" data-fill-palette-color="accent"></path><polygon points="4.838,0 0,0 13.533,27.285 32.195,27.285 38.126,13.17 12.078,13.17 4.838,0 " fill="#ffffff" data-fill-palette-color="accent"></polygon></svg></g></svg></g><path d="M101.721 196.065L103.174 199.8 76.536 210.167 75.171 206.66 95.034 198.931 71.724 197.803 70.767 195.342 87.205 178.702 67.305 186.446 65.944 182.949 92.582 172.583 94.05 176.355 75.866 194.78ZM114.157 253.376L116.693 247.056 107.319 238.692 101.336 241.936 98.376 239.295 125.195 224.861 128.436 227.754 117.109 256.01ZM110.163 237.129L117.924 244.054 123.718 229.748ZM173.256 259.661C172.492 261.929 171.081 263.552 169.023 264.531 166.965 265.509 164.344 265.462 161.161 264.391V264.391L155.914 262.624 152.077 274.018 148.52 272.821 157.707 245.538 166.511 248.502C169.591 249.539 171.683 251.072 172.786 253.1 173.889 255.129 174.046 257.316 173.256 259.661ZM162.151 261.453C164.135 262.121 165.742 262.185 166.971 261.645 168.203 261.098 169.086 260.029 169.622 258.438V258.438C170.754 255.074 169.388 252.742 165.522 251.44V251.44L160.274 249.673 156.903 259.686ZM250.648 256.157C251.677 255.933 252.721 255.983 253.781 256.309 254.843 256.641 255.796 257.19 256.64 257.956 257.482 258.716 258.113 259.638 258.533 260.722V260.722C259.059 262.079 259.185 263.437 258.911 264.798 258.645 266.162 257.971 267.415 256.89 268.557 255.815 269.695 254.378 270.614 252.577 271.312V271.312L242.566 275.195 232.156 248.355 241.788 244.619C243.607 243.914 245.276 243.613 246.797 243.716 248.31 243.821 249.587 244.263 250.625 245.042 251.67 245.818 252.442 246.849 252.941 248.136V248.136C253.558 249.727 253.637 251.209 253.178 252.583 252.719 253.957 251.876 255.148 250.648 256.157ZM236.776 249.888L240.15 258.588 246.045 256.301C247.686 255.665 248.807 254.785 249.407 253.663 250.01 252.547 250.047 251.307 249.519 249.945V249.945C248.993 248.588 248.13 247.698 246.93 247.274 245.732 246.856 244.287 246.975 242.595 247.631V247.631ZM251.152 268.54C252.895 267.864 254.096 266.928 254.755 265.731 255.412 264.529 255.456 263.195 254.888 261.731V261.731C254.311 260.242 253.341 259.265 251.98 258.801 250.621 258.344 249.08 258.449 247.356 259.118V259.118L241.271 261.478 244.944 270.948ZM270.816 226.719L273.475 224.072 286.324 236.98C288.132 238.797 289.918 239.7 291.683 239.69 293.442 239.684 295.112 238.895 296.692 237.322V237.322C298.254 235.768 299.041 234.111 299.055 232.352 299.073 230.587 298.179 228.797 296.37 226.98V226.98L283.522 214.072 286.182 211.424 299.001 224.304C300.69 226 301.772 227.767 302.248 229.604 302.72 231.447 302.658 233.23 302.063 234.954 301.463 236.674 300.44 238.253 298.994 239.692V239.692C297.549 241.131 295.965 242.146 294.243 242.738 292.515 243.326 290.739 243.372 288.913 242.877 287.083 242.388 285.324 241.295 283.635 239.599V239.599ZM304.426 174.434L305.889 170.517 319.402 185.578 329.576 189.377 328.26 192.902 318.085 189.103 297.998 191.65 299.457 187.742 315.605 186.185Z" fill="#ffffff" data-fill-palette-color="primary"></path><path d="M67.807 76.998L69.246 73.291 95.703 83.561 94.352 87.041 74.626 79.383 90.939 95.834 89.987 98.287 66.798 99.437 86.562 107.109 85.211 110.588 58.754 100.318 60.209 96.572 85.871 95.278ZM127.269 48.919L121.316 45.719 112.026 54.025 114.551 60.29 111.616 62.914 100.373 34.842 103.581 31.973 130.203 46.295ZM110.791 51.053L118.5 44.16 105.028 36.85ZM165.57 8.655C166.329 10.903 166.188 13.035 165.146 15.052 164.109 17.059 162.009 18.597 158.847 19.665V19.665L153.649 21.42 157.465 32.724 153.929 33.918 144.786 6.835 153.52 3.887C156.58 2.854 159.154 2.806 161.243 3.744 163.341 4.686 164.783 6.323 165.57 8.655ZM157.862 16.747C159.833 16.081 161.142 15.166 161.789 14 162.433 12.828 162.489 11.453 161.957 9.875V9.875C160.828 6.532 158.344 5.509 154.505 6.805V6.805L149.307 8.56 152.664 18.502ZM251.439 22.666C252.347 23.201 253.081 23.942 253.639 24.888 254.189 25.838 254.52 26.875 254.631 27.997 254.733 29.123 254.576 30.222 254.16 31.293V31.293C253.636 32.643 252.818 33.726 251.707 34.541 250.601 35.359 249.272 35.824 247.719 35.935 246.164 36.053 244.492 35.765 242.705 35.071V35.071L232.771 31.213 243.12 4.568 252.673 8.278C254.479 8.979 255.905 9.88 256.952 10.979 257.994 12.069 258.634 13.248 258.872 14.514 259.115 15.783 258.99 17.055 258.495 18.328V18.328C257.882 19.906 256.948 21.046 255.691 21.746 254.434 22.447 253.017 22.754 251.439 22.666ZM245.484 8.79L242.128 17.431 247.974 19.701C249.603 20.334 251.013 20.44 252.204 20.02 253.396 19.601 254.253 18.716 254.778 17.366V17.366C255.302 16.016 255.266 14.784 254.67 13.67 254.072 12.563 252.933 11.683 251.254 11.031V11.031ZM243.516 32.082C245.246 32.754 246.753 32.873 248.038 32.438 249.325 31.997 250.25 31.051 250.814 29.6V29.6C251.388 28.123 251.33 26.759 250.642 25.507 249.954 24.255 248.758 23.298 247.053 22.636V22.636L241.017 20.292 237.365 29.693ZM293.752 34.054L296.396 36.689 283.625 49.502C281.83 51.302 280.938 53.073 280.951 54.813 280.963 56.563 281.754 58.22 283.324 59.785V59.785C284.875 61.33 286.525 62.106 288.275 62.113 290.02 62.125 291.79 61.23 293.585 59.429V59.429L306.356 46.616 308.999 49.251 296.257 62.035C294.582 63.715 292.829 64.795 290.998 65.274 289.172 65.748 287.403 65.693 285.691 65.11 283.983 64.521 282.412 63.512 280.977 62.082V62.082C279.547 60.656 278.533 59.088 277.934 57.378 277.344 55.667 277.289 53.903 277.766 52.085 278.254 50.267 279.335 48.518 281.01 46.838V46.838ZM335.32 98.785L336.766 102.665 316.84 100.153 306.729 103.92 305.426 100.422 315.537 96.655 328.947 81.68 330.396 85.569 319.287 97.228Z" fill="#ffffff" data-fill-palette-color="primary"></path><path d="M59.141 142.674C59.141 136.644 64.03 131.755 70.06 131.755 76.091 131.755 80.98 136.644 80.98 142.674 80.98 148.705 76.091 153.594 70.06 153.594 64.03 153.594 59.141 148.705 59.141 142.674ZM314.54 142.674C314.54 136.644 319.429 131.755 325.46 131.755 331.49 131.755 336.379 136.644 336.379 142.674 336.379 148.705 331.49 153.594 325.46 153.594 319.429 153.594 314.54 148.705 314.54 142.674Z" fill="#ffffff" data-fill-palette-color="primary"></path></svg></g><g transform="matrix(1,0,0,1,0,295.46666128000004)"><svg viewBox="0 0 395.52 34.91130400858285" height="34.91130400858285" width="395.52"><g transform="matrix(1,0,0,1,0,0)"><svg width="395.52" viewBox="3.6500000953674316 -36.20000076293945 512.5899658203125 45.25" height="34.91130400858285" data-palette-color="#ffffff"><path d="M14.25 0L14.25 0 3.65 0 3.65-33.7 14.15-33.7Q21.65-33.7 26.45-29.05 31.25-24.4 31.25-17.2L31.25-17.2Q31.25-9.7 26.73-4.85 22.2 0 14.25 0ZM14.05-29.3L14.05-29.3 8.9-29.3 8.9-4.35 14.2-4.35Q19.95-4.35 22.95-7.95 25.95-11.55 25.95-17.2L25.95-17.2Q25.95-22.4 22.7-25.85 19.45-29.3 14.05-29.3ZM56.35-22.03Q59.5-18.35 59.5-12.65 59.5-6.95 56.27-3.25 53.05 0.45 47.4 0.45L47.4 0.45Q41.8 0.45 38.6-3.2 35.4-6.85 35.4-12.45L35.4-12.45Q35.4-18.15 38.7-21.93 42-25.7 47.4-25.7L47.4-25.7Q53.2-25.7 56.35-22.03ZM40.5-12.6L40.5-12.6Q40.5-8.85 42.35-6.28 44.2-3.7 47.4-3.7L47.4-3.7Q50.8-3.7 52.57-6.2 54.35-8.7 54.35-12.55L54.35-12.55Q54.35-16.5 52.65-19.03 50.95-21.55 47.35-21.55L47.35-21.55Q44.1-21.55 42.3-18.98 40.5-16.4 40.5-12.6ZM85.95-17.15L85.95 0 81.05 0 81.05-16Q81.05-18.65 79.72-20.05 78.4-21.45 76.2-21.45L76.2-21.45Q73.6-21.45 71.75-19.43 69.9-17.4 69.9-13.75L69.9-13.75 69.9 0 65 0 65-25.35 69.9-25.35 69.9-21Q72.15-25.7 77.8-25.7L77.8-25.7Q81.55-25.7 83.75-23.4 85.95-21.1 85.95-17.15L85.95-17.15ZM95.49-34.05L95.49-21.85 91.24-21.85 91.24-34.05 95.49-34.05ZM114.39-5.05L114.39-0.65Q112.74 0.25 110.34 0.25L110.34 0.25Q102.49 0.25 102.49-7.7L102.49-7.7 102.49-21.55 98.54-21.55 98.54-25.35 102.49-25.35 102.49-31.55 107.44-31.55 107.44-25.35 114.09-25.35 114.09-21.55 107.44-21.55 107.44-7.6Q107.44-3.95 110.94-3.95L110.94-3.95Q112.99-3.95 114.39-5.05L114.39-5.05ZM145.39-8.3L143.09 0 137.54 0 129.59-25.35 134.79-25.35 137.14-16.95Q138.29-12.95 139.09-9.9 139.89-6.85 140.09-5.8L140.09-5.8 140.29-4.75Q140.94-7.9 143.59-17L143.59-17 146.04-25.35 150.79-25.35 153.29-17Q154.49-12.85 155.34-9.78 156.19-6.7 156.44-5.7L156.44-5.7 156.64-4.7Q157.24-7.65 160.04-17L160.04-17 162.54-25.35 167.49-25.35 159.44 0 153.84 0 151.49-8.3Q150.44-12.1 149.66-15.03 148.89-17.95 148.64-19L148.64-19 148.44-20Q147.74-16.75 145.39-8.3L145.39-8.3ZM191.43-22.03Q194.58-18.35 194.58-12.65 194.58-6.95 191.36-3.25 188.13 0.45 182.48 0.45L182.48 0.45Q176.88 0.45 173.68-3.2 170.48-6.85 170.48-12.45L170.48-12.45Q170.48-18.15 173.78-21.93 177.08-25.7 182.48-25.7L182.48-25.7Q188.28-25.7 191.43-22.03ZM175.58-12.6L175.58-12.6Q175.58-8.85 177.43-6.28 179.28-3.7 182.48-3.7L182.48-3.7Q185.88-3.7 187.66-6.2 189.43-8.7 189.43-12.55L189.43-12.55Q189.43-16.5 187.73-19.03 186.03-21.55 182.43-21.55L182.43-21.55Q179.18-21.55 177.38-18.98 175.58-16.4 175.58-12.6ZM204.98-13.5L204.98 0 200.08 0 200.08-25.35 204.98-25.35 204.98-20.9Q206.83-25.6 211.63-25.6L211.63-25.6Q212.33-25.6 213.18-25.45L213.18-25.45 213.18-20.65Q212.13-21.1 210.83-21.1L210.83-21.1Q208.28-21.1 206.63-18.85 204.98-16.6 204.98-13.5L204.98-13.5ZM221.93-13.5L221.93 0 217.03 0 217.03-25.35 221.93-25.35 221.93-20.9Q223.78-25.6 228.58-25.6L228.58-25.6Q229.28-25.6 230.13-25.45L230.13-25.45 230.13-20.65Q229.08-21.1 227.78-21.1L227.78-21.1Q225.23-21.1 223.58-18.85 221.93-16.6 221.93-13.5L221.93-13.5ZM255.08-25.35L245.93-0.7Q242.28 9.05 234.78 9.05L234.78 9.05Q233.43 9.05 232.48 8.8L232.48 8.8 232.48 4.6Q233.28 4.8 234.18 4.8L234.18 4.8Q239.03 4.8 240.98-0.55L240.98-0.55 230.88-25.35 236.33-25.35 239.48-17.1 243.43-6.4Q243.88-7.9 247.03-17.1L247.03-17.1 249.88-25.35 255.08-25.35ZM266.17-5.5L259.62 6.2 255.32 6.2 260.12-5.5 266.17-5.5ZM297.02-8.3L294.72 0 289.17 0 281.22-25.35 286.42-25.35 288.77-16.95Q289.92-12.95 290.72-9.9 291.52-6.85 291.72-5.8L291.72-5.8 291.92-4.75Q292.57-7.9 295.22-17L295.22-17 297.67-25.35 302.42-25.35 304.92-17Q306.12-12.85 306.97-9.78 307.82-6.7 308.07-5.7L308.07-5.7 308.27-4.7Q308.87-7.65 311.67-17L311.67-17 314.17-25.35 319.12-25.35 311.07 0 305.47 0 303.12-8.3Q302.07-12.1 301.29-15.03 300.52-17.95 300.27-19L300.27-19 300.07-20Q299.37-16.75 297.02-8.3L297.02-8.3ZM342.42-5.75L342.42-1.35Q339.62 0.25 335.02 0.25L335.02 0.25Q329.12 0.25 325.62-3.3 322.12-6.85 322.12-12.6L322.12-12.6Q322.12-18.7 325.32-22.18 328.52-25.65 333.47-25.65L333.47-25.65Q338.32-25.65 341.17-22.63 344.02-19.6 344.02-13.9L344.02-13.9Q344.02-12.35 343.72-10.65L343.72-10.65 327.07-10.65Q327.57-7.35 329.87-5.6 332.17-3.85 335.67-3.85L335.67-3.85Q339.72-3.85 342.42-5.75L342.42-5.75ZM333.57-21.6L333.57-21.6Q331.07-21.6 329.27-19.78 327.47-17.95 327.02-14.5L327.02-14.5 339.27-14.5 339.27-15.4Q339.17-18.25 337.72-19.93 336.27-21.6 333.57-21.6ZM383.01-17L383.01 0 378.11 0 378.11-16Q378.11-18.6 376.79-20.03 375.46-21.45 373.31-21.45L373.31-21.45Q370.81-21.45 368.89-19.55 366.96-17.65 366.96-13.75L366.96-13.75 366.96 0 362.06 0 362.06-35.35 366.96-35.35 366.96-21Q369.11-25.7 374.81-25.7L374.81-25.7Q378.51-25.7 380.76-23.4 383.01-21.1 383.01-17L383.01-17ZM397.81-3.65L397.81-3.65Q400.21-3.65 401.58-4.98 402.96-6.3 402.96-8.45L402.96-8.45 402.96-11.3 399.16-11.3Q396.36-11.3 394.93-10.2 393.51-9.1 393.51-7.4L393.51-7.4Q393.51-5.65 394.61-4.65 395.71-3.65 397.81-3.65ZM403.11 0L403.11-3Q401.16 0.2 396.26 0.2L396.26 0.2Q392.66 0.2 390.48-1.88 388.31-3.95 388.31-7.15L388.31-7.15Q388.31-10.8 391.06-12.83 393.81-14.85 398.76-14.85L398.76-14.85 402.96-14.85 402.96-16.3Q402.96-18.9 401.71-20.23 400.46-21.55 397.56-21.55L397.56-21.55Q393.51-21.55 390.21-19.3L390.21-19.3 390.21-24.05Q393.16-25.75 398.01-25.75L398.01-25.75Q407.96-25.75 407.96-16.1L407.96-16.1 407.96 0 403.11 0ZM435.86-25.35L426.66 0 421.06 0 412.06-25.35 417.21-25.35 420.66-14.65Q421.86-10.95 422.68-8.25 423.51-5.55 423.71-4.7L423.71-4.7 423.91-3.85Q424.36-6.3 427.21-14.65L427.21-14.65 430.76-25.35 435.86-25.35ZM459.15-5.75L459.15-1.35Q456.35 0.25 451.75 0.25L451.75 0.25Q445.85 0.25 442.35-3.3 438.85-6.85 438.85-12.6L438.85-12.6Q438.85-18.7 442.05-22.18 445.25-25.65 450.2-25.65L450.2-25.65Q455.05-25.65 457.9-22.63 460.75-19.6 460.75-13.9L460.75-13.9Q460.75-12.35 460.45-10.65L460.45-10.65 443.8-10.65Q444.3-7.35 446.6-5.6 448.9-3.85 452.4-3.85L452.4-3.85Q456.45-3.85 459.15-5.75L459.15-5.75ZM450.3-21.6L450.3-21.6Q447.8-21.6 446-19.78 444.2-17.95 443.75-14.5L443.75-14.5 456-14.5 456-15.4Q455.9-18.25 454.45-19.93 453-21.6 450.3-21.6ZM483.95-25.35L483.95 0 479 0 479-25.35 483.95-25.35ZM484.55-33.1L484.55-33.1Q484.55-31.85 483.65-30.95 482.75-30.05 481.45-30.05 480.15-30.05 479.27-30.93 478.4-31.8 478.4-33.1 478.4-34.4 479.27-35.3 480.15-36.2 481.45-36.2 482.75-36.2 483.65-35.3 484.55-34.4 484.55-33.1ZM504.35-5.05L504.35-0.65Q502.7 0.25 500.3 0.25L500.3 0.25Q492.45 0.25 492.45-7.7L492.45-7.7 492.45-21.55 488.5-21.55 488.5-25.35 492.45-25.35 492.45-31.55 497.4-31.55 497.4-25.35 504.05-25.35 504.05-21.55 497.4-21.55 497.4-7.6Q497.4-3.95 500.9-3.95L500.9-3.95Q502.95-3.95 504.35-5.05L504.35-5.05ZM515.24-33.7L515.24-10.7 510.44-10.7 510.44-33.7 515.24-33.7ZM516.24-3L516.24-3Q516.24-1.55 515.24-0.58 514.24 0.4 512.79 0.4 511.34 0.4 510.37-0.58 509.39-1.55 509.39-3 509.39-4.45 510.37-5.45 511.34-6.45 512.79-6.45L512.79-6.45Q514.19-6.45 515.22-5.43 516.24-4.4 516.24-3Z" opacity="1" transform="matrix(1,0,0,1,0,0)" fill="#ffffff" class="undefined-text-1" data-fill-palette-color="secondary" id="text-1"></path></svg></g></svg></g></svg></g></svg></g><g></g></svg></g><defs></defs></svg><rect width="335.2087960928764" height="280" fill="none" stroke="none" visibility="hidden"></rect></g></svg></g></svg>